<?xml version="1.0" encoding="utf-8"?>
<!-- Generator: Adobe Illustrator 26.4.1, SVG Export Plug-In . SVG Version: 6.00 Build 0)  -->
<svg version="1.1" id="Camada_2_00000115513516019736157800000016332538732015418788_"
	 xmlns="http://www.w3.org/2000/svg" xmlns:xlink="http://www.w3.org/1999/xlink" x="0px" y="0px" viewBox="0 0 95.7 48"
	 style="enable-background:new 0 0 95.7 48;" xml:space="preserve">
<g id="Camada_1-2">
	<path class="st0" d="M95.7,24c0,13.2-10.7,24-24,24H50.6c-6.7-5.9-10.8-14.4-10.8-24S43.9,5.9,50.6,0h21.2C85,0,95.7,10.7,95.7,24z
		 M14.7,15.6c0,2.4-2.4,4.3-5.5,4.4c0,0-4.2,0.7-6.4-2.5c-0.4,1.1-1.4,1.7-2.6,2C1.2,14.1,4,9.3,8,5.9c1.5,1.4,2.1,3.4,1.2,5.2
		C12.3,11.2,14.8,13.2,14.7,15.6z M35.7,42.3c0,2.3-1.2,4.3-3.1,5.7h-8.9c-2.3,0-4.5-0.3-6.6-0.9c-0.5-0.5-0.9-1-1.3-1.5
		c-0.1,0.3-0.3,0.7-0.5,1c-8-3-14.1-10.2-15.4-18.9c1.7-0.3,3.5-0.1,5.2,0.5c2.1-4.8,8.6-7.3,14.6-5.5c5.9,1.8,8.9,7.1,6.8,11.9
		C31.7,34.6,35.8,38.1,35.7,42.3z"/>
</g>
</svg>
