<?xml version="1.0" encoding="utf-8"?>
<!-- Generator: Adobe Illustrator 26.4.1, SVG Export Plug-In . SVG Version: 6.00 Build 0)  -->
<svg version="1.1" id="Camada_2_00000180357860900830370550000003639203631565610151_"
	 xmlns="http://www.w3.org/2000/svg" xmlns:xlink="http://www.w3.org/1999/xlink" x="0px" y="0px" viewBox="0 0 53.7 36.5"
	 style="enable-background:new 0 0 53.7 36.5;" xml:space="preserve">
<g id="Camada_1-2">
	<g id="Grupo_5">
		<path id="Caminho_2" class="st0" d="M5.4,2.4c-1,0-1.8-0.8-1.8-1.8C3.6,0.3,3.3,0,3,0S2.4,0.3,2.4,0.6c0,1-0.8,1.8-1.8,1.8
			C0.3,2.4,0,2.7,0,3s0.3,0.6,0.6,0.6c1,0,1.8,0.8,1.8,1.8C2.4,5.7,2.7,6,3,6s0.6-0.3,0.6-0.6c0-1,0.8-1.8,1.8-1.8
			C5.7,3.6,6,3.3,6,3S5.7,2.4,5.4,2.4"/>
		<path id="Caminho_3" class="st0" d="M17.2,18.2c-1.3,0-2.4-1.1-2.4-2.4c0-0.4-0.4-0.8-0.8-0.8s-0.8,0.4-0.8,0.8
			c0,1.3-1.1,2.4-2.4,2.4c-0.4,0-0.8,0.4-0.8,0.8s0.4,0.8,0.8,0.8c1.3,0,2.4,1.1,2.4,2.4c0,0.4,0.4,0.8,0.8,0.8s0.8-0.4,0.8-0.8
			c0-1.3,1.1-2.4,2.4-2.4c0.4,0,0.8-0.4,0.8-0.8C18,18.6,17.6,18.2,17.2,18.2"/>
		<path id="Caminho_4" class="st0" d="M32,6c-1.7,0-3-1.3-3-3c0-0.5-0.5-1-1-1s-1,0.5-1,1c0,1.7-1.3,3-3,3c-0.5,0-1,0.4-1,1
			s0.5,1,1,1c1.7,0,3,1.3,3,3c0,0.6,0.5,1,1,1s1-0.4,1-1c0-1.7,1.3-3,3-3c0.5,0,1-0.4,1-1S32.5,6,32,6"/>
	</g>
	<path class="st0" d="M53.7,19.6c-1.1,7.1-5.3,13.2-11.1,16.9c-2.9,0.3-6.3-0.8-7.1-2.6c-1.9,3.1-7.9,2.8-10.5-0.8
		c-2.6-3.6,0.5-9.1,4.8-8.1c0.5-1.6,1.8-2.9,3.4-3.5c1.8-0.7,3.8-0.7,5.6-0.1c1.6-3.4,6.6-5.2,11.1-4C51.5,17.8,52.8,18.6,53.7,19.6
		z"/>
</g>
</svg>
