<svg id="Camada_2" xmlns="http://www.w3.org/2000/svg" viewBox="0 0 53.73 36.49"><defs/><g id="Camada_1-2"><g id="Grupo_5"><path id="Caminho_2" class="cls-1" d="M5.4 2.4c-.99 0-1.8-.81-1.8-1.8C3.6.27 3.33 0 3 0c-.33 0-.6.27-.6.6 0 .99-.81 1.8-1.8 1.8-.33 0-.6.27-.6.6s.27.6.6.6c.99 0 1.8.81 1.8 1.8 0 .33.27.6.6.6s.6-.27.6-.6c0-.99.81-1.8 1.8-1.8.33 0 .6-.27.6-.6s-.27-.6-.6-.6"/><path id="Caminho_3" class="cls-1" d="M17.2 18.2c-1.33 0-2.4-1.07-2.4-2.4 0-.44-.36-.8-.8-.8s-.8.36-.8.8c0 1.33-1.07 2.4-2.4 2.4-.44 0-.8.36-.8.8s.36.8.8.8c1.33 0 2.4 1.07 2.4 2.4 0 .44.36.8.8.8s.8-.36.8-.8c0-1.33 1.07-2.4 2.4-2.4.44 0 .8-.36.8-.8 0-.44-.36-.8-.8-.8"/><path id="Caminho_4" class="cls-1" d="M32 6c-1.66 0-3-1.34-3-3 0-.55-.45-1-1-1s-1 .45-1 1c0 1.66-1.34 3-3 3-.55 0-1 .45-1 1s.45 1 1 1c1.66 0 3 1.34 3 3 0 .55.45 1 1 1s1-.45 1-1c0-1.66 1.34-3 3-3 .55 0 1-.45 1-1s-.45-1-1-1"/></g><path class="cls-1" d="M53.73 19.57c-1.06 7.13-5.26 13.24-11.15 16.87-2.9.29-6.27-.75-7.12-2.63-1.89 3.06-7.88 2.8-10.5-.84-2.61-3.65.5-9.08 4.8-8.08.52-1.63 1.79-2.91 3.41-3.45 1.81-.69 3.81-.72 5.64-.08 1.63-3.43 6.58-5.21 11.06-3.96 1.59.44 2.9 1.21 3.86 2.17Z"/></g></svg>