<svg id="Camada_2" xmlns="http://www.w3.org/2000/svg" viewBox="0 0 95.73 48"><defs/><g id="Camada_1-2"><path class="cls-1" d="M95.73 24c0 13.25-10.74 24-24 24H50.58c-6.65-5.86-10.85-14.44-10.85-24s4.2-18.14 10.85-24h21.15c13.26 0 24 10.74 24 24ZM14.73 15.59c-.04 2.41-2.4 4.34-5.5 4.35 0 0-4.17.7-6.42-2.49-.38 1.08-1.41 1.7-2.64 1.98C1.21 14.05 4.04 9.32 8.02 5.87c1.53 1.4 2.08 3.38 1.21 5.24 3.1.07 5.55 2.07 5.5 4.48ZM35.73 42.27c-.04 2.3-1.23 4.34-3.12 5.73h-8.88c-2.28 0-4.48-.33-6.57-.92-.46-.45-.9-.95-1.3-1.54-.12.35-.28.67-.47.97C7.34 43.52 1.32 36.34 0 27.61c1.74-.29 3.54-.13 5.22.5 2.14-4.81 8.65-7.3 14.55-5.55 5.89 1.75 8.93 7.06 6.8 11.87 5.16.14 9.24 3.63 9.16 7.84Z"/></g></svg>