<svg xmlns="http://www.w3.org/2000/svg" xmlns:xlink="http://www.w3.org/1999/xlink" width="5.8" height="28" viewBox="0 0 5.8 28">
  <defs>
    <linearGradient id="linear-gradient" x1="0.5" x2="0.5" y2="1" gradientUnits="objectBoundingBox">
      <stop offset="0" stop-color="#a44cee"/>
      <stop offset="1" stop-color="#2edff0"/>
    </linearGradient>
    <linearGradient id="linear-gradient-2" x1="0.5" x2="0.5" y2="1" gradientUnits="objectBoundingBox">
      <stop offset="0" stop-color="#8986f4"/>
      <stop offset="1" stop-color="#69e8fd"/>
    </linearGradient>
  </defs>
  <g id="selected_channel_shape" transform="translate(0 0)">
    <path id="Caminho_32" data-name="Caminho 32" d="M3.486.5A11.356,11.356,0,0,1,5.621,7.162V19.149a11.356,11.356,0,0,1-2.135,6.658A14.384,14.384,0,0,0,3.1,23.671l-1.8-6.854a14.442,14.442,0,0,1,0-7.323L3.1,2.64A14.384,14.384,0,0,0,3.486.5Z" transform="translate(-0.323 0.845)" fill-rule="evenodd" fill="url(#linear-gradient)"/>
    <path id="Caminho_32_-_Contorno" data-name="Caminho 32 - Contorno" d="M3.126-.858,2.989.438A13.937,13.937,0,0,1,2.611,2.5L.811,9.356a14.934,14.934,0,0,0,0,7.572l1.8,6.854a13.936,13.936,0,0,1,.378,2.064l.137,1.3.768-1.06a11.918,11.918,0,0,0,2.229-6.947V7.148A11.918,11.918,0,0,0,3.894.2ZM3.78,24.4q-.087-.436-.2-.865l-1.8-6.854a13.953,13.953,0,0,1,0-7.074l1.8-6.854q.112-.428.2-.865A11.009,11.009,0,0,1,5.121,7.148V19.136A11.009,11.009,0,0,1,3.78,24.4Z" transform="translate(-0.323 0.858)" fill="url(#linear-gradient-2)"/>
  </g>
</svg>
