<svg xmlns="http://www.w3.org/2000/svg" width="39.38" height="37.153" viewBox="0 0 39.38 37.153">
  <g id="Garden_-_Icon" data-name="Garden - Icon" transform="translate(-1570.859 -781.414)">
    <path id="Caminho_61761" data-name="Caminho 61761" d="M1595.429,801.058h-.01a1.205,1.205,0,1,0,.01,0Z" fill="#edf2fa"/>
    <path id="Caminho_61762" data-name="Caminho 61762" d="M1608.042,787.19a1.2,1.2,0,0,0-2-.311c-4.254,4.806-7.087,5.361-10.674,6.065-.632.125-1.285.26-1.955.414a16.306,16.306,0,0,0-5.527-11.625,1.2,1.2,0,0,0-1.955.51c-1.335,4.1-2.932,5.2-4.954,6.593a17.517,17.517,0,0,0-4.964,4.707,11.321,11.321,0,0,0-1.471,9.841,6.032,6.032,0,0,0,3.77,4.069c.2.063.4.11.605.16a10.568,10.568,0,0,0,.19,3.843,20.027,20.027,0,0,1-6.708-.553,1.2,1.2,0,0,0-.687,2.3,21.444,21.444,0,0,0,5.729.718,23.9,23.9,0,0,0,2.68-.152,6.7,6.7,0,0,0,1.221,1.424,13.953,13.953,0,0,0,9.241,3.374,18.338,18.338,0,0,0,10.821-3.79C1608.462,809.564,1613.249,799.013,1608.042,787.19Zm-31.225,15.422a8.97,8.97,0,0,1,1.162-7.688,15.238,15.238,0,0,1,4.365-4.112,12.388,12.388,0,0,0,5.191-6.005,13.5,13.5,0,0,1,3.492,9.207c-.121.04-.239.089-.36.131-.174.062-.348.125-.52.191-.277.1-.552.218-.825.335-.166.07-.332.14-.5.215-.294.134-.588.281-.88.43-.138.069-.276.135-.413.208-.429.23-.86.473-1.294.738a14.235,14.235,0,0,0-1.23.849c-.122.094-.235.2-.355.3-.269.22-.537.442-.792.682-.141.132-.272.274-.409.412-.22.223-.439.447-.647.683-.139.159-.27.324-.4.488-.19.233-.376.467-.553.711-.129.177-.251.357-.373.54q-.246.367-.472.746c-.114.191-.223.383-.329.578-.14.258-.27.52-.4.785-.094.2-.188.4-.274.6-.116.273-.218.549-.318.827-.073.2-.148.4-.212.6-.021.069-.051.136-.072.206-.124-.033-.248-.068-.37-.107A3.853,3.853,0,0,1,1576.817,802.612Zm23.163,10.236c-4.743,3.505-11.859,5.03-17.065.53-.031-.027-.055-.06-.085-.088a21.639,21.639,0,0,0,11.191-6.727,1.2,1.2,0,0,0-1.78-1.609,19.329,19.329,0,0,1-10.719,6.169,8.541,8.541,0,0,1-.06-4.219,12.966,12.966,0,0,1,.835-2.556,13.608,13.608,0,0,1,5.194-6.037,20.344,20.344,0,0,1,5.028-2.249c1.155-.338,2.252-.554,3.315-.762,3.363-.66,6.559-1.288,10.7-5.432C1610.324,800.4,1605.511,808.762,1599.98,812.848Z" fill="#edf2fa"/>
  </g>
</svg>
