<svg xmlns="http://www.w3.org/2000/svg" xmlns:xlink="http://www.w3.org/1999/xlink" width="37.998" height="35.721" viewBox="0 0 37.998 35.721">
  <defs>
    <clipPath id="clip-path">
      <path id="Garden_-_Shadow" data-name="Garden - Shadow" d="M1609.65,598.7c-.01-.12-.03-.24-.05-.36-.08-.46-.17-.93-.28-1.39l-.06-.27-.01-.03a1.44,1.44,0,0,0-2.32-.76c-.47.38-.93.73-1.38,1.04a17.44,17.44,0,0,1-2.15,1.25,16.6,16.6,0,0,1-1.91.77,23.05,23.05,0,0,1-2.47.64c-.45.1-.9.19-1.35.28h-.03c-.43.09-.87.17-1.31.27-.67.14-1.35.3-2.06.51-.16.04-.32.1-.48.15a19.494,19.494,0,0,0-2.4.93c-.17.08-.34.16-.51.25-.58.28-1.16.61-1.74.96a14.033,14.033,0,0,0-1.56,1.13c-.26.23-.52.46-.77.71a14.734,14.734,0,0,0-2.9,4.17,14.54,14.54,0,0,0-.66,1.77c-.05.15-.09.3-.13.45-.04.17-.09.35-.12.53-.02.09-.04.19-.06.29-.04.23-.08.46-.11.68a9.377,9.377,0,0,0-.03,2.11,7.116,7.116,0,0,0,.21,1.08,19.319,19.319,0,0,0,7.68-3.38c.14-.1.27-.2.41-.3.53-.42,1.06-.87,1.56-1.35.38-.36.75-.73,1.11-1.13a.525.525,0,0,0,.1-.11,1.344,1.344,0,0,1,1.9-.09,1.325,1.325,0,0,1,.44,1.11,1.305,1.305,0,0,1-.34.79c-.23.25-.46.5-.69.73-.38.39-.76.76-1.15,1.1l-.02.02c-.53.47-1.07.91-1.62,1.31-.49.37-.99.71-1.49,1.02a21.958,21.958,0,0,1-6.4,2.69c.24.21.48.4.73.59a11.736,11.736,0,0,0,7.65,2.22,14.975,14.975,0,0,0,2.38-.33c.48-.11.96-.24,1.44-.4.34-.11.68-.23,1.01-.36s.67-.28,1-.43a19.913,19.913,0,0,0,2.37-1.34c.25-.17.51-.35.76-.53s.51-.39.76-.6c.31-.25.6-.5.89-.77a19.461,19.461,0,0,0,1.77-1.86c.16-.18.31-.37.46-.57.27-.35.53-.7.77-1.06a20.209,20.209,0,0,0,1.86-3.42v-.01q.39-.93.69-1.89a1.8,1.8,0,0,1,.05-.19c.01-.02.01-.04.02-.06a19.488,19.488,0,0,0,.65-3.32c.02-.14.03-.29.05-.43.04-.47.06-.94.07-1.41v-.44A21.308,21.308,0,0,0,1609.65,598.7Zm-12.44,9.55c-.06,0-.12-.01-.18-.01a1.363,1.363,0,0,1-1.02-.74,1.326,1.326,0,0,1-.14-.6,1.348,1.348,0,0,1,.95-1.29,1.672,1.672,0,0,1,.39-.06,1.348,1.348,0,0,1,1.25.84,1.4,1.4,0,0,1,.1.51A1.351,1.351,0,0,1,1597.21,608.25Zm-12.71,10.02a22.972,22.972,0,0,1-3.08.56l-.65.06a.2.2,0,0,0-.07.01c-.7.05-1.37.08-2,.08-.17,0-.33-.01-.49-.01a2.823,2.823,0,0,1-.29-.01,20.937,20.937,0,0,1-5.08-.71.582.582,0,0,1-.14-.05,1.324,1.324,0,0,1-.81-1.14,1.129,1.129,0,0,1,.05-.48,1.34,1.34,0,0,1,1.67-.91,17.768,17.768,0,0,0,3.25.53,21.135,21.135,0,0,0,3.12.04c.11,0,.22-.01.34-.02.09-.01.18-.01.27-.02a21.347,21.347,0,0,0,2.42-.34,1.208,1.208,0,0,1,.05.18,3.613,3.613,0,0,0,.13.35,4.673,4.673,0,0,0,.68,1.22,4.338,4.338,0,0,0,.58.63C1584.47,618.25,1584.48,618.26,1584.5,618.27Zm10.78-20.66c-.16.03-.31.07-.48.11-.07.02-.15.04-.23.06-.34.08-.69.18-1.05.28-.31.1-.62.19-.92.29-.01,0-.02.01-.03.01-.13.04-.25.09-.37.14-.15.04-.29.1-.43.15a19.129,19.129,0,0,0-2.13.94,20.217,20.217,0,0,0-1.91,1.06c-.35.21-.7.45-1.04.7a15.858,15.858,0,0,0-2.36,2.14,16.9,16.9,0,0,0-1.67,2.17c-.15.24-.3.48-.44.72a17.307,17.307,0,0,0-.85,1.66,15.174,15.174,0,0,0-.67,1.81c-.09.3-.18.6-.25.9l-.09.39c-.07.36-.14.71-.18,1.06-.02.1-.03.2-.04.3-.08-.03-.17-.05-.25-.08a2.662,2.662,0,0,1-.27-.07,5.179,5.179,0,0,1-1.3-.62,5.775,5.775,0,0,1-1.11-.94,7.159,7.159,0,0,1-.99-1.42c-.05-.1-.11-.21-.16-.33a7.128,7.128,0,0,1-.39-.94c-.08-.24-.15-.49-.21-.73a9.013,9.013,0,0,1-.23-1.15,10.7,10.7,0,0,1-.11-1.79c0-.14.01-.29.01-.44a12.8,12.8,0,0,1,.25-1.86,11.3,11.3,0,0,1,.35-1.3,11.854,11.854,0,0,1,.96-2.15c.08-.14.16-.27.25-.41s.17-.26.26-.39a17.412,17.412,0,0,1,1.87-2.25,21.478,21.478,0,0,1,3.26-2.61,15.055,15.055,0,0,0,2.41-1.92,8.879,8.879,0,0,0,1.48-2.04,15.94,15.94,0,0,0,1.15-2.75,1.332,1.332,0,0,1,.68-.79,1.384,1.384,0,0,1,.26-.1,1.343,1.343,0,0,1,1.07.17c.06.05.13.09.19.15a18.894,18.894,0,0,1,3.42,4.18,17.746,17.746,0,0,1,1.15,2.31.076.076,0,0,0,.02.05,15.8,15.8,0,0,1,1.03,4.08C1595.24,596.77,1595.27,597.19,1595.28,597.61Z" fill="none"/>
    </clipPath>
  </defs>
  <g id="Grupo_13725" data-name="Grupo 13725" transform="translate(-1571.882 -585.375)">
    <g id="Grupo_13724" data-name="Grupo 13724" clip-path="url(#clip-path)">
      <g id="Grupo_13750" data-name="Grupo 13750">
        <path id="Caminho_61752" data-name="Caminho 61752" d="M1565.708,617.431c1.323,0,6.555-.463,9.346-2.08a8.746,8.746,0,0,1,9.848,1.028,6.855,6.855,0,0,0,8.82,0,8.748,8.748,0,0,1,10.436,0c3.379,2.793,7.055.3,10.435-1.028s6.908-1.177,9.7,1.028,5.88,1.471,9.7,0,5.733-.441,6.175,2.352-2.205,6.762-6.175,5.292-9.964-4.266-12.9-4.266-5.595,3.237-9.271,3.384-5.427-2.209-9.836-3.384-7.233,2.942-11.791,3.384-4.409-1.765-8.671-2.793-4.116-.294-8.965,1.176-10.585,2.646-11.612-.588S1564.385,617.431,1565.708,617.431Z" fill="#af74e2"/>
        <path id="Caminho_61751" data-name="Caminho 61751" d="M1565.226,615.763c1.322,0,6.554-.464,9.346-2.081a8.746,8.746,0,0,1,9.848,1.028,6.855,6.855,0,0,0,8.82,0,8.75,8.75,0,0,1,10.435,0c3.38,2.793,7.055.3,10.436-1.028s6.908-1.176,9.7,1.028,5.881,1.471,9.7,0,5.733-.441,6.175,2.352-2.2,6.762-6.175,5.292-9.963-4.266-12.9-4.266-5.6,3.237-9.271,3.384-5.427-2.208-9.836-3.384-7.234,2.942-11.791,3.384-4.409-1.764-8.672-2.792-4.115-.294-8.965,1.176-10.584,2.645-11.611-.588S1563.9,615.763,1565.226,615.763Z" fill="#cf99ff"/>
        <path id="Caminho_61750" data-name="Caminho 61750" d="M1562.925,611.422c1.323,0,6.555-.463,9.346-2.08a8.746,8.746,0,0,1,9.848,1.028,6.857,6.857,0,0,0,8.82,0,8.747,8.747,0,0,1,10.435,0c3.38,2.792,7.055.3,10.436-1.028s6.908-1.177,9.7,1.028,5.88,1.47,9.7,0,5.733-.441,6.175,2.351-2.2,6.762-6.175,5.293-9.963-4.267-12.9-4.267-5.595,3.238-9.271,3.385-5.427-2.209-9.836-3.385-7.233,2.943-11.791,3.385-4.409-1.765-8.672-2.793-4.115-.294-8.964,1.176-10.585,2.646-11.612-.588S1561.6,611.422,1562.925,611.422Z" fill="#80b4fb"/>
        <path id="Caminho_61748" data-name="Caminho 61748" d="M1561.4,609.975c1.323,0,6.555-.464,9.347-2.08a8.745,8.745,0,0,1,9.847,1.028,6.857,6.857,0,0,0,8.82,0,8.748,8.748,0,0,1,10.436,0c3.379,2.792,7.055.3,10.435-1.028s6.908-1.177,9.7,1.028,5.88,1.47,9.7,0,5.733-.441,6.175,2.351-2.2,6.762-6.175,5.292-9.964-4.266-12.9-4.266-5.595,3.238-9.271,3.385-5.427-2.209-9.836-3.385-7.233,2.943-11.79,3.385-4.41-1.765-8.672-2.793-4.116-.294-8.965,1.176-10.585,2.645-11.612-.588S1560.081,609.975,1561.4,609.975Z" fill="#a6cbff"/>
        <path id="Caminho_61749" data-name="Caminho 61749" d="M1562.442,606.969c1.323,0,6.555-.463,9.347-2.08a8.746,8.746,0,0,1,9.848,1.028,6.853,6.853,0,0,0,8.819,0,8.748,8.748,0,0,1,10.436,0c3.38,2.793,7.055.3,10.436-1.028s6.908-1.177,9.7,1.028,5.88,1.471,9.7,0,5.733-.441,6.175,2.352-2.205,6.762-6.175,5.292-9.964-4.266-12.9-4.266-5.6,3.237-9.271,3.384-5.427-2.208-9.837-3.384-7.233,2.942-11.79,3.384-4.41-1.765-8.672-2.793-4.115-.294-8.965,1.176-10.584,2.646-11.611-.588S1561.12,606.969,1562.442,606.969Z" fill="#45e6d0"/>
        <path id="Caminho_61747" data-name="Caminho 61747" d="M1561.144,605.635c1.323,0,6.555-.463,9.347-2.08a8.745,8.745,0,0,1,9.847,1.028,6.856,6.856,0,0,0,8.82,0,8.748,8.748,0,0,1,10.436,0c3.379,2.792,7.055.3,10.435-1.028s6.908-1.177,9.7,1.028,5.88,1.471,9.7,0,5.733-.441,6.175,2.352-2.2,6.762-6.175,5.292-9.964-4.266-12.9-4.266-5.595,3.237-9.271,3.384-5.427-2.209-9.836-3.384-7.233,2.942-11.79,3.384-4.41-1.765-8.672-2.793-4.116-.294-8.965,1.176-10.585,2.646-11.612-.588S1559.821,605.635,1561.144,605.635Z" fill="#8df2e5"/>
        <path id="Caminho_61746" data-name="Caminho 61746" d="M1559.588,601.739c1.322,0,6.554-.463,9.346-2.08a8.746,8.746,0,0,1,9.848,1.028,6.855,6.855,0,0,0,8.82,0,8.746,8.746,0,0,1,10.435,0c3.38,2.793,7.055.3,10.436-1.028s6.908-1.177,9.7,1.028,5.881,1.471,9.7,0,5.733-.441,6.175,2.352-2.2,6.762-6.175,5.292-9.963-4.266-12.9-4.266-5.6,3.237-9.271,3.384-5.427-2.209-9.836-3.384-7.234,2.942-11.791,3.384-4.409-1.765-8.672-2.793-4.115-.294-8.965,1.176-10.584,2.646-11.611-.588S1558.265,601.739,1559.588,601.739Z" fill="#64d97c"/>
        <path id="Caminho_61745" data-name="Caminho 61745" d="M1560.551,600.515c1.322,0,6.554-.463,9.346-2.08a8.746,8.746,0,0,1,9.848,1.028,6.853,6.853,0,0,0,8.819,0,8.748,8.748,0,0,1,10.436,0c3.38,2.793,7.055.3,10.436-1.028s6.908-1.177,9.7,1.028,5.88,1.471,9.7,0,5.733-.441,6.175,2.352-2.2,6.762-6.175,5.292-9.964-4.266-12.9-4.266-5.6,3.237-9.271,3.384-5.427-2.208-9.837-3.384-7.233,2.942-11.79,3.384-4.409-1.765-8.672-2.793-4.115-.294-8.965,1.176-10.584,2.646-11.611-.588S1559.228,600.515,1560.551,600.515Z" fill="#85f29b"/>
        <path id="Caminho_61744" data-name="Caminho 61744" d="M1559.586,596.62c1.323,0,6.555-.463,9.346-2.08a8.746,8.746,0,0,1,9.848,1.028,6.855,6.855,0,0,0,8.82,0,8.747,8.747,0,0,1,10.435,0c3.38,2.793,7.055.3,10.436-1.028s6.908-1.177,9.7,1.028,5.88,1.471,9.7,0,5.733-.441,6.175,2.352-2.2,6.762-6.175,5.292-9.963-4.266-12.9-4.266-5.6,3.237-9.271,3.384-5.427-2.208-9.836-3.384-7.234,2.942-11.791,3.384-4.409-1.765-8.672-2.793-4.115-.294-8.965,1.176-10.584,2.646-11.611-.588S1558.263,596.62,1559.586,596.62Z" fill="#ffcf33"/>
        <path id="Caminho_61743" data-name="Caminho 61743" d="M1561.033,595.618c1.323,0,6.555-.464,9.346-2.08a8.746,8.746,0,0,1,9.848,1.028,6.857,6.857,0,0,0,8.82,0,8.747,8.747,0,0,1,10.435,0c3.38,2.792,7.055.3,10.436-1.028s6.908-1.177,9.7,1.028,5.88,1.47,9.7,0,5.734-.441,6.175,2.351-2.2,6.762-6.175,5.292-9.963-4.266-12.9-4.266-5.595,3.238-9.271,3.385-5.427-2.209-9.836-3.385-7.233,2.943-11.791,3.385-4.409-1.765-8.671-2.793-4.116-.294-8.965,1.176-10.585,2.645-11.612-.588S1559.71,595.618,1561.033,595.618Z" fill="#ffdb66"/>
        <path id="Caminho_61742" data-name="Caminho 61742" d="M1558.808,591.946c1.322,0,6.554-.463,9.346-2.08a8.746,8.746,0,0,1,9.848,1.028,6.853,6.853,0,0,0,8.819,0,8.748,8.748,0,0,1,10.436,0c3.38,2.792,7.055.3,10.436-1.028s6.908-1.177,9.7,1.028,5.88,1.471,9.7,0,5.733-.441,6.175,2.352-2.205,6.762-6.175,5.292-9.964-4.266-12.9-4.266-5.6,3.237-9.271,3.384-5.427-2.209-9.837-3.384-7.233,2.942-11.79,3.384-4.409-1.765-8.672-2.793-4.115-.294-8.965,1.176-10.584,2.646-11.611-.588S1557.485,591.946,1558.808,591.946Z" fill="#e6975c"/>
        <path id="Caminho_25639" data-name="Caminho 25639" d="M1558.323,590.944c1.323,0,6.555-.464,9.347-2.081a8.745,8.745,0,0,1,9.847,1.028,6.855,6.855,0,0,0,8.82,0,8.751,8.751,0,0,1,10.436,0c3.379,2.793,7.055.3,10.435-1.028s6.908-1.176,9.7,1.028,5.88,1.471,9.7,0,5.733-.441,6.175,2.352-2.205,6.762-6.175,5.292-9.964-4.266-12.9-4.266-5.6,3.237-9.272,3.384-5.426-2.208-9.836-3.384-7.233,2.943-11.79,3.384-4.41-1.764-8.672-2.792-4.116-.294-8.965,1.176-10.585,2.645-11.611-.588S1557,590.944,1558.323,590.944Z" fill="#ffc599"/>
        <path id="Caminho_25638" data-name="Caminho 25638" d="M1557.658,587.271c1.323,0,6.555-.463,9.346-2.08a8.746,8.746,0,0,1,9.848,1.028,6.857,6.857,0,0,0,8.82,0,8.748,8.748,0,0,1,10.436,0c3.379,2.792,7.055.3,10.435-1.028s6.908-1.177,9.7,1.028,5.88,1.471,9.7,0,5.733-.441,6.175,2.351-2.2,6.762-6.175,5.293-9.964-4.267-12.9-4.267-5.595,3.238-9.271,3.385-5.427-2.209-9.836-3.385-7.233,2.943-11.791,3.385-4.409-1.765-8.671-2.793-4.116-.294-8.965,1.176-10.585,2.646-11.612-.588S1556.335,587.271,1557.658,587.271Z" fill="#e66767"/>
        <path id="Caminho_61741" data-name="Caminho 61741" d="M1558.361,586.27c1.323,0,6.555-.464,9.346-2.081a8.746,8.746,0,0,1,9.848,1.028,6.854,6.854,0,0,0,8.82,0,8.75,8.75,0,0,1,10.435,0c3.38,2.793,7.055.3,10.436-1.028s6.908-1.176,9.7,1.028,5.88,1.471,9.7,0,5.734-.441,6.175,2.352-2.2,6.762-6.175,5.292-9.963-4.266-12.9-4.266-5.595,3.237-9.271,3.384-5.427-2.208-9.836-3.384-7.233,2.942-11.791,3.384-4.409-1.764-8.672-2.792-4.115-.294-8.964,1.175-10.585,2.646-11.612-.587S1557.038,586.27,1558.361,586.27Z" fill="#f99"/>
      </g>
    </g>
  </g>
</svg>
