<svg xmlns="http://www.w3.org/2000/svg" xmlns:xlink="http://www.w3.org/1999/xlink" width="38.001" height="38.001" viewBox="0 0 38.001 38.001">
  <defs>
    <clipPath id="clip-path">
      <path id="Goal_-_Shadow" data-name="Goal - Shadow" d="M1503.266,426.87c-.01.26-.02.53-.04.79a13.282,13.282,0,0,1-.19,1.56,14.939,14.939,0,0,1-.91,3.12,14.252,14.252,0,0,1-.9,1.79,14.87,14.87,0,0,1-12.9,7.37h-.16a14.9,14.9,0,0,1-12.58-7.36,15.985,15.985,0,0,1-.81-1.6,14.564,14.564,0,0,1-.91-2.92c-.1-.5-.18-1.01-.23-1.52-.03-.36-.06-.72-.07-1.09a14.324,14.324,0,0,1,.08-1.86,13.515,13.515,0,0,1,.24-1.57,14.457,14.457,0,0,1,.98-2.98,15.94,15.94,0,0,1,.77-1.48,15.038,15.038,0,0,1,3.27-3.85,14.834,14.834,0,0,1,2.87-1.89,14.2,14.2,0,0,1,1.55-.67,14.539,14.539,0,0,1,5.09-.91c.26,0,.53.01.8.02a2.639,2.639,0,0,1,2.5,2.43,2.55,2.55,0,0,1-.4,1.63,3.564,3.564,0,0,1-.36.45h-.01a2.672,2.672,0,0,1-2.03.77c-.16-.01-.33-.02-.5-.02a9.484,9.484,0,0,0-3.92.84,10.133,10.133,0,0,0-1.33.73,9.928,9.928,0,0,0-1.52,1.24c-.19.2-.38.4-.56.61a9.068,9.068,0,0,0-.86,1.2,9.261,9.261,0,0,0-1.09,2.62,9.034,9.034,0,0,0-.25,1.47,8.241,8.241,0,0,0-.04.86,9.638,9.638,0,0,0,.24,2.15,8.488,8.488,0,0,0,.57,1.7,9.565,9.565,0,0,0,15.52,2.92,9.349,9.349,0,0,0,2.27-3.6,9.594,9.594,0,0,0,.54-3.17v-.06c0-.21-.01-.41-.03-.62a2.64,2.64,0,0,1,.12-.97,2.39,2.39,0,0,1,.61-1.01l.04-.05a2.655,2.655,0,0,1,4.29.79,2.766,2.766,0,0,1,.21.88C1503.256,426.02,1503.266,426.44,1503.266,426.87Zm8.26-15.46a1.469,1.469,0,0,0-.95-1.07l-4.33-1.52-1.52-4.33a1.492,1.492,0,0,0-2.45-.56l-6.49,6.49a1.506,1.506,0,0,0-.35,1.55l.27.78.47,1.31.53,1.5-2.28,2.28-3.95,3.95a5.23,5.23,0,0,0-2.06-.42,5.3,5.3,0,0,0-3.46,1.29,5.594,5.594,0,0,0-.91,1.03,5.167,5.167,0,0,0-.88,2.4,5.248,5.248,0,0,0-.03.56,5,5,0,0,0,.1,1.03,5.281,5.281,0,0,0,9.98,1.17,5.207,5.207,0,0,0,.45-1.71,3.9,3.9,0,0,0,.03-.49,5.23,5.23,0,0,0-.42-2.06l6.23-6.23,1.93.68,1.66.59a1.454,1.454,0,0,0,.5.08,1.518,1.518,0,0,0,1.05-.43l2.91-2.91,1.13-1.14,2.05-2.05.4-.39a1.479,1.479,0,0,0,.4-.76A1.442,1.442,0,0,0,1511.526,411.41Z" fill="none"/>
    </clipPath>
  </defs>
  <g id="Grupo_13722" data-name="Grupo 13722" transform="translate(-1473.564 -403.499)">
    <g id="Grupo_13721" data-name="Grupo 13721" clip-path="url(#clip-path)">
      <g id="Grupo_13750" data-name="Grupo 13750">
        <path id="Caminho_61752" data-name="Caminho 61752" d="M1457.477,439.17c1.412,0,6.994-.5,9.972-2.22a9.333,9.333,0,0,1,10.507,1.1,7.313,7.313,0,0,0,9.41,0c2.04-1.883,7.528-2.98,11.134,0s7.527.316,11.134-1.1,7.371-1.255,10.35,1.1,6.274,1.569,10.35,0,6.117-.471,6.588,2.509-2.352,7.215-6.588,5.646-10.63-4.551-13.767-4.551-5.97,3.454-9.891,3.611-5.79-2.357-10.495-3.611-7.717,3.139-12.579,3.611-4.705-1.883-9.253-2.98-4.391-.314-9.564,1.255-11.293,2.822-12.389-.628S1456.066,439.17,1457.477,439.17Z" fill="#af74e2"/>
        <path id="Caminho_61751" data-name="Caminho 61751" d="M1456.963,437.39c1.411,0,6.993-.5,9.972-2.22a9.329,9.329,0,0,1,10.506,1.1,7.314,7.314,0,0,0,9.41,0c2.04-1.883,7.529-2.98,11.134,0s7.528.315,11.134-1.1,7.371-1.256,10.35,1.1,6.274,1.569,10.35,0,6.117-.471,6.589,2.509-2.353,7.214-6.589,5.646-10.63-4.552-13.766-4.552-5.97,3.454-9.892,3.611-5.79-2.356-10.495-3.611-7.717,3.14-12.579,3.611-4.705-1.883-9.252-2.979-4.391-.314-9.565,1.254-11.293,2.823-12.389-.627S1455.551,437.39,1456.963,437.39Z" fill="#cf99ff"/>
        <path id="Caminho_61750" data-name="Caminho 61750" d="M1454.508,432.758c1.411,0,6.993-.494,9.972-2.219a9.33,9.33,0,0,1,10.507,1.1,7.316,7.316,0,0,0,9.41,0c2.039-1.883,7.528-2.98,11.134,0s7.527.315,11.134-1.1,7.37-1.256,10.35,1.1,6.273,1.569,10.35,0,6.116-.471,6.588,2.509-2.352,7.214-6.588,5.646-10.631-4.552-13.767-4.552-5.97,3.454-9.892,3.611-5.79-2.356-10.494-3.611-7.718,3.14-12.58,3.611-4.7-1.883-9.252-2.979-4.391-.314-9.565,1.254-11.293,2.823-12.388-.627S1453.1,432.758,1454.508,432.758Z" fill="#80b4fb"/>
        <path id="Caminho_61748" data-name="Caminho 61748" d="M1452.886,431.214c1.411,0,6.993-.494,9.971-2.219a9.331,9.331,0,0,1,10.507,1.1,7.313,7.313,0,0,0,9.41,0c2.04-1.882,7.528-2.979,11.134,0s7.527.316,11.134-1.1,7.371-1.256,10.35,1.1,6.274,1.57,10.35,0,6.117-.47,6.588,2.51-2.352,7.214-6.588,5.646-10.63-4.552-13.767-4.552-5.97,3.454-9.891,3.611-5.79-2.356-10.495-3.611-7.717,3.14-12.579,3.611-4.7-1.883-9.253-2.979-4.39-.314-9.564,1.254-11.293,2.823-12.389-.627S1451.474,431.214,1452.886,431.214Z" fill="#a6cbff"/>
        <path id="Caminho_61749" data-name="Caminho 61749" d="M1453.993,428.008c1.412,0,6.994-.495,9.972-2.22a9.331,9.331,0,0,1,10.507,1.1,7.313,7.313,0,0,0,9.41,0c2.04-1.883,7.528-2.98,11.134,0s7.527.315,11.134-1.1,7.37-1.255,10.35,1.1,6.274,1.569,10.35,0,6.117-.471,6.588,2.509-2.352,7.214-6.588,5.646-10.631-4.551-13.767-4.551-5.97,3.454-9.891,3.61-5.791-2.356-10.495-3.61-7.717,3.139-12.58,3.61-4.7-1.882-9.252-2.979-4.391-.314-9.565,1.254-11.292,2.823-12.388-.627S1452.582,428.008,1453.993,428.008Z" fill="#45e6d0"/>
        <path id="Caminho_61747" data-name="Caminho 61747" d="M1452.608,426.584c1.411,0,6.994-.494,9.972-2.219a9.331,9.331,0,0,1,10.507,1.1,7.313,7.313,0,0,0,9.41,0c2.039-1.882,7.528-2.979,11.134,0s7.527.316,11.134-1.1,7.37-1.256,10.35,1.1,6.273,1.57,10.35,0,6.117-.47,6.588,2.509-2.352,7.215-6.588,5.647-10.631-4.552-13.767-4.552-5.97,3.454-9.892,3.611-5.79-2.356-10.494-3.611-7.717,3.14-12.58,3.611-4.7-1.883-9.252-2.98-4.391-.313-9.565,1.255-11.293,2.823-12.388-.627S1451.2,426.584,1452.608,426.584Z" fill="#8df2e5"/>
        <path id="Caminho_61746" data-name="Caminho 61746" d="M1450.947,422.428c1.412,0,6.994-.495,9.972-2.22a9.331,9.331,0,0,1,10.507,1.1,7.313,7.313,0,0,0,9.41,0c2.04-1.883,7.528-2.98,11.134,0s7.527.315,11.134-1.1,7.371-1.256,10.35,1.1,6.274,1.569,10.35,0,6.117-.471,6.588,2.509-2.352,7.214-6.588,5.646-10.63-4.552-13.767-4.552-5.97,3.454-9.891,3.611-5.79-2.356-10.495-3.611-7.717,3.14-12.579,3.611-4.705-1.883-9.253-2.979-4.391-.314-9.565,1.254-11.292,2.823-12.388-.627S1449.536,422.428,1450.947,422.428Z" fill="#64d97c"/>
        <path id="Caminho_61745" data-name="Caminho 61745" d="M1451.975,421.122c1.411,0,6.993-.495,9.972-2.22a9.331,9.331,0,0,1,10.506,1.1,7.313,7.313,0,0,0,9.41,0c2.04-1.883,7.529-2.98,11.134,0s7.528.316,11.135-1.1,7.37-1.255,10.349,1.1,6.274,1.569,10.35,0,6.117-.471,6.589,2.509-2.353,7.215-6.589,5.646-10.63-4.551-13.766-4.551-5.97,3.454-9.892,3.611-5.79-2.357-10.495-3.611-7.717,3.139-12.579,3.611-4.7-1.883-9.252-2.98-4.391-.314-9.565,1.255-11.293,2.822-12.389-.628S1450.563,421.122,1451.975,421.122Z" fill="#85f29b"/>
        <path id="Caminho_61744" data-name="Caminho 61744" d="M1450.945,416.966c1.412,0,6.994-.494,9.972-2.219a9.331,9.331,0,0,1,10.507,1.1,7.313,7.313,0,0,0,9.41,0c2.04-1.883,7.528-2.979,11.134,0s7.527.316,11.134-1.1,7.371-1.256,10.35,1.1,6.274,1.569,10.35,0,6.117-.47,6.588,2.509-2.352,7.215-6.588,5.647-10.63-4.552-13.767-4.552-5.97,3.454-9.891,3.611-5.79-2.356-10.495-3.611-7.717,3.139-12.579,3.611-4.7-1.883-9.253-2.98-4.391-.313-9.565,1.255-11.292,2.823-12.388-.627S1449.534,416.966,1450.945,416.966Z" fill="#ffcf33"/>
        <path id="Caminho_61743" data-name="Caminho 61743" d="M1452.489,415.9c1.412,0,6.994-.495,9.972-2.22a9.331,9.331,0,0,1,10.507,1.1,7.313,7.313,0,0,0,9.41,0c2.04-1.883,7.528-2.98,11.134,0s7.527.315,11.134-1.1,7.371-1.256,10.35,1.1,6.274,1.569,10.35,0,6.117-.471,6.588,2.509-2.352,7.214-6.588,5.646-10.63-4.552-13.767-4.552-5.97,3.454-9.891,3.611-5.79-2.356-10.495-3.611-7.717,3.14-12.579,3.611-4.7-1.883-9.253-2.979-4.391-.314-9.564,1.254-11.293,2.823-12.389-.627S1451.078,415.9,1452.489,415.9Z" fill="#ffdb66"/>
        <path id="Caminho_61742" data-name="Caminho 61742" d="M1450.115,411.979c1.411,0,6.994-.494,9.972-2.219a9.331,9.331,0,0,1,10.507,1.1,7.313,7.313,0,0,0,9.41,0c2.039-1.883,7.528-2.979,11.134,0s7.527.316,11.134-1.1,7.37-1.256,10.35,1.1,6.273,1.569,10.35,0,6.117-.47,6.588,2.509-2.352,7.215-6.588,5.647-10.631-4.552-13.767-4.552-5.97,3.454-9.892,3.611-5.79-2.356-10.494-3.611-7.717,3.139-12.58,3.611-4.7-1.883-9.252-2.98-4.391-.313-9.565,1.255-11.293,2.823-12.388-.627S1448.7,411.979,1450.115,411.979Z" fill="#e6975c"/>
        <path id="Caminho_25639" data-name="Caminho 25639" d="M1449.6,410.91c1.412,0,6.994-.495,9.972-2.22a9.331,9.331,0,0,1,10.507,1.1,7.313,7.313,0,0,0,9.41,0c2.04-1.883,7.528-2.98,11.134,0s7.527.315,11.134-1.1,7.371-1.256,10.35,1.1,6.274,1.569,10.35,0,6.117-.471,6.588,2.509-2.352,7.214-6.588,5.646-10.63-4.552-13.767-4.552-5.97,3.454-9.891,3.611-5.79-2.356-10.495-3.611-7.717,3.14-12.58,3.611-4.7-1.883-9.252-2.979-4.391-.314-9.565,1.254-11.292,2.823-12.388-.627S1448.187,410.91,1449.6,410.91Z" fill="#ffc599"/>
        <path id="Caminho_25638" data-name="Caminho 25638" d="M1448.889,406.991c1.411,0,6.993-.494,9.972-2.219a9.329,9.329,0,0,1,10.506,1.1,7.313,7.313,0,0,0,9.41,0c2.04-1.883,7.529-2.979,11.134,0s7.528.316,11.134-1.1,7.371-1.256,10.35,1.1,6.274,1.569,10.35,0,6.117-.47,6.589,2.509-2.353,7.215-6.589,5.647-10.63-4.552-13.766-4.552-5.971,3.454-9.892,3.611-5.79-2.356-10.495-3.611-7.717,3.139-12.579,3.611-4.7-1.883-9.252-2.98-4.391-.313-9.565,1.255-11.293,2.823-12.389-.627S1447.477,406.991,1448.889,406.991Z" fill="#e66767"/>
        <path id="Caminho_61741" data-name="Caminho 61741" d="M1449.639,405.923c1.411,0,6.993-.495,9.972-2.22a9.329,9.329,0,0,1,10.506,1.1,7.313,7.313,0,0,0,9.41,0c2.04-1.883,7.529-2.98,11.134,0s7.528.315,11.134-1.1,7.371-1.256,10.35,1.1,6.274,1.569,10.35,0,6.117-.471,6.589,2.509-2.353,7.214-6.589,5.646-10.63-4.551-13.767-4.551-5.97,3.454-9.891,3.61-5.79-2.356-10.495-3.61-7.717,3.139-12.579,3.61-4.7-1.882-9.252-2.979-4.391-.314-9.565,1.254-11.293,2.823-12.389-.627S1448.227,405.923,1449.639,405.923Z" fill="#f99"/>
      </g>
    </g>
  </g>
</svg>
