<svg xmlns="http://www.w3.org/2000/svg" width="41.76" height="41.762" viewBox="0 0 41.76 41.762">
  <g id="Goals_-_Icon" data-name="Goals - Icon" transform="translate(-1469.68 -779.119)">
    <path id="Caminho_61759" data-name="Caminho 61759" d="M1511.41,787.763a1.2,1.2,0,0,0-.771-.867l-5.16-1.816-1.815-5.159a1.2,1.2,0,0,0-1.98-.45l-7.4,7.4a1.2,1.2,0,0,0-.283,1.247l1.755,4.989-4.73,4.731a8.225,8.225,0,1,0,1.7,1.7l4.729-4.731,4.989,1.756a1.222,1.222,0,0,0,.4.068,1.2,1.2,0,0,0,.849-.352l7.4-7.4A1.2,1.2,0,0,0,1511.41,787.763Zm-25.266,22.453a5.8,5.8,0,1,1,5.8-5.8A5.806,5.806,0,0,1,1486.144,810.216Zm16.378-16.168-4.446-1.565-1.564-4.446,5.521-5.521,1.373,3.9a1.2,1.2,0,0,0,.734.733l3.9,1.374Z" fill="#edf2fa"/>
    <path id="Caminho_61760" data-name="Caminho 61760" d="M1500.692,799.684a1.2,1.2,0,0,0-.887,1.446,14.121,14.121,0,1,1-10.394-10.38,1.2,1.2,0,0,0,.557-2.334,16.523,16.523,0,1,0,12.171,12.155A1.2,1.2,0,0,0,1500.692,799.684Z" fill="#edf2fa"/>
  </g>
</svg>
