<svg xmlns="http://www.w3.org/2000/svg" xmlns:xlink="http://www.w3.org/1999/xlink" width="35.753" height="35.237" viewBox="0 0 35.753 35.237">
  <defs>
    <clipPath id="clip-path">
      <path id="Caminho_61705" data-name="Caminho 61705" d="M1408.279,244.34a1.722,1.722,0,0,1-.07.21,3.231,3.231,0,0,1-.22.41,2.573,2.573,0,0,1-2.17,1.18h-1.35a.376.376,0,0,0-.37.37v11.82a2.151,2.151,0,0,1-.04.45,2.592,2.592,0,0,1-2.54,2.14h-6.37a1.108,1.108,0,0,1-1.11-1.11v-8.13a1.844,1.844,0,0,0-1.85-1.84h-3.32a1.844,1.844,0,0,0-1.85,1.84v8.13a1.114,1.114,0,0,1-1.11,1.11h-6.37a2.575,2.575,0,0,1-1.74-.68h-.01a2.638,2.638,0,0,1-.79-1.43,2.435,2.435,0,0,1-.05-.48V246.51a.367.367,0,0,0-.36-.37h-1.35a2.593,2.593,0,0,1-2.39-1.59,3.527,3.527,0,0,1-.15-.5,2.545,2.545,0,0,1,.17-1.52,1.911,1.911,0,0,1,.16-.32,2.507,2.507,0,0,1,.38-.48l15.29-15.29a1.662,1.662,0,0,1,.14-.13,2.592,2.592,0,0,1,3.52.13l15.29,15.29a3.49,3.49,0,0,1,.25.29A2.563,2.563,0,0,1,1408.279,244.34Z" fill="none"/>
    </clipPath>
  </defs>
  <g id="Grupo_13719" data-name="Grupo 13719" transform="translate(-1372.652 -225.683)">
    <g id="Grupo_13718" data-name="Grupo 13718" clip-path="url(#clip-path)">
      <g id="Grupo_13750" data-name="Grupo 13750">
        <path id="Caminho_61752" data-name="Caminho 61752" d="M1365.324,258.761c1.355,0,6.717-.475,9.578-2.132a8.961,8.961,0,0,1,10.091,1.053,7.025,7.025,0,0,0,9.039,0c1.959-1.808,7.23-2.861,10.694,0s7.229.3,10.694-1.053,7.079-1.206,9.941,1.053,6.026,1.508,9.941,0,5.875-.452,6.328,2.41-2.259,6.93-6.328,5.424-10.211-4.372-13.223-4.372-5.734,3.317-9.5,3.468-5.561-2.263-10.08-3.468-7.412,3.015-12.082,3.468-4.519-1.809-8.887-2.862-4.217-.3-9.187,1.2-10.847,2.711-11.9-.6S1363.968,258.761,1365.324,258.761Z" fill="#af74e2"/>
        <path id="Caminho_61751" data-name="Caminho 61751" d="M1364.829,257.051c1.356,0,6.717-.475,9.578-2.132a8.963,8.963,0,0,1,10.092,1.053,7.023,7.023,0,0,0,9.038,0c1.959-1.808,7.231-2.861,10.694,0s7.23.3,10.694-1.053,7.08-1.206,9.941,1.053,6.026,1.508,9.941,0,5.876-.451,6.329,2.41-2.26,6.93-6.329,5.424-10.21-4.372-13.222-4.372-5.735,3.317-9.5,3.468-5.562-2.263-10.08-3.468-7.412,3.015-12.083,3.468-4.518-1.808-8.886-2.862-4.218-.3-9.187,1.2-10.847,2.711-11.9-.6S1363.474,257.051,1364.829,257.051Z" fill="#cf99ff"/>
        <path id="Caminho_61750" data-name="Caminho 61750" d="M1362.471,252.6c1.356,0,6.718-.475,9.578-2.132a8.963,8.963,0,0,1,10.092,1.053,7.023,7.023,0,0,0,9.038,0c1.959-1.808,7.231-2.862,10.694,0s7.23.3,10.695-1.053,7.079-1.206,9.941,1.053,6.025,1.507,9.941,0,5.875-.452,6.328,2.41-2.26,6.93-6.328,5.424-10.211-4.372-13.223-4.372-5.734,3.317-9.5,3.468-5.561-2.263-10.08-3.468-7.412,3.015-12.083,3.468-4.518-1.809-8.886-2.862-4.218-.3-9.187,1.205-10.847,2.711-11.9-.6S1361.116,252.6,1362.471,252.6Z" fill="#80b4fb"/>
        <path id="Caminho_61748" data-name="Caminho 61748" d="M1360.913,251.12c1.356,0,6.717-.475,9.578-2.132a8.963,8.963,0,0,1,10.092,1.053,7.023,7.023,0,0,0,9.038,0c1.959-1.808,7.231-2.862,10.694,0s7.23.3,10.694-1.053,7.079-1.206,9.941,1.053,6.026,1.507,9.941,0,5.876-.452,6.328,2.41-2.259,6.93-6.328,5.423-10.21-4.371-13.223-4.371-5.734,3.317-9.5,3.468-5.562-2.263-10.08-3.468-7.413,3.015-12.083,3.468-4.519-1.809-8.887-2.862-4.217-.3-9.186,1.205-10.847,2.711-11.9-.6S1359.558,251.12,1360.913,251.12Z" fill="#a6cbff"/>
        <path id="Caminho_61749" data-name="Caminho 61749" d="M1361.977,248.04c1.356,0,6.717-.475,9.578-2.132a8.963,8.963,0,0,1,10.092,1.053,7.023,7.023,0,0,0,9.038,0c1.959-1.808,7.231-2.862,10.694,0s7.23.3,10.694-1.053,7.079-1.206,9.941,1.053,6.026,1.507,9.941,0,5.876-.452,6.328,2.41-2.259,6.93-6.328,5.423-10.21-4.371-13.223-4.371-5.734,3.317-9.5,3.468-5.562-2.263-10.08-3.468-7.413,3.015-12.083,3.468-4.519-1.809-8.887-2.862-4.217-.3-9.186,1.2-10.847,2.711-11.9-.6S1360.622,248.04,1361.977,248.04Z" fill="#45e6d0"/>
        <path id="Caminho_61747" data-name="Caminho 61747" d="M1360.647,246.672c1.355,0,6.717-.475,9.578-2.131a8.961,8.961,0,0,1,10.091,1.053,7.026,7.026,0,0,0,9.039,0c1.959-1.808,7.23-2.862,10.694,0s7.229.3,10.694-1.053,7.079-1.206,9.941,1.053,6.026,1.507,9.941,0,5.875-.452,6.328,2.41-2.259,6.929-6.328,5.423-10.211-4.372-13.223-4.372-5.734,3.318-9.5,3.469-5.561-2.264-10.08-3.469-7.412,3.016-12.082,3.469-4.519-1.809-8.887-2.862-4.217-.3-9.187,1.205-10.847,2.711-11.9-.6S1359.291,246.672,1360.647,246.672Z" fill="#8df2e5"/>
        <path id="Caminho_61746" data-name="Caminho 61746" d="M1359.052,242.68c1.355,0,6.717-.475,9.578-2.132a8.96,8.96,0,0,1,10.091,1.054,7.026,7.026,0,0,0,9.038,0c1.96-1.809,7.231-2.862,10.695,0s7.229.3,10.694-1.054,7.079-1.206,9.941,1.054,6.026,1.507,9.941,0,5.875-.452,6.328,2.41-2.26,6.929-6.328,5.423-10.211-4.372-13.223-4.372-5.734,3.317-9.5,3.468-5.561-2.263-10.08-3.468-7.412,3.015-12.082,3.468-4.519-1.808-8.887-2.862-4.217-.3-9.187,1.2-10.847,2.711-11.9-.6S1357.7,242.68,1359.052,242.68Z" fill="#64d97c"/>
        <path id="Caminho_61745" data-name="Caminho 61745" d="M1360.038,241.426c1.356,0,6.717-.475,9.578-2.132a8.963,8.963,0,0,1,10.092,1.053,7.023,7.023,0,0,0,9.038,0c1.959-1.808,7.231-2.861,10.694,0s7.23.3,10.7-1.053,7.079-1.206,9.941,1.053,6.025,1.508,9.941,0,5.875-.452,6.328,2.41-2.26,6.93-6.328,5.424-10.211-4.372-13.223-4.372-5.735,3.317-9.5,3.468-5.561-2.263-10.08-3.468-7.412,3.015-12.083,3.468-4.518-1.809-8.886-2.862-4.218-.3-9.187,1.205-10.847,2.711-11.9-.6S1358.683,241.426,1360.038,241.426Z" fill="#85f29b"/>
        <path id="Caminho_61744" data-name="Caminho 61744" d="M1359.05,237.434c1.355,0,6.717-.475,9.578-2.132a8.963,8.963,0,0,1,10.091,1.054,7.027,7.027,0,0,0,9.039,0c1.959-1.809,7.23-2.862,10.694,0s7.23.3,10.694-1.054,7.079-1.205,9.941,1.054,6.026,1.507,9.941,0,5.875-.452,6.328,2.41-2.259,6.929-6.328,5.423-10.211-4.372-13.223-4.372-5.734,3.318-9.5,3.468-5.561-2.263-10.08-3.468-7.412,3.016-12.082,3.468-4.519-1.808-8.887-2.861-4.217-.3-9.187,1.205-10.847,2.711-11.9-.6S1357.694,237.434,1359.05,237.434Z" fill="#ffcf33"/>
        <path id="Caminho_61743" data-name="Caminho 61743" d="M1360.533,236.407c1.355,0,6.717-.475,9.578-2.132a8.96,8.96,0,0,1,10.091,1.054,7.027,7.027,0,0,0,9.039,0c1.959-1.809,7.23-2.862,10.694,0s7.23.3,10.694-1.054,7.079-1.206,9.941,1.054,6.026,1.507,9.941,0,5.875-.452,6.328,2.41-2.259,6.929-6.328,5.423-10.211-4.372-13.223-4.372-5.734,3.317-9.5,3.468-5.561-2.263-10.08-3.468-7.412,3.015-12.082,3.468-4.519-1.808-8.887-2.862-4.217-.3-9.187,1.205-10.847,2.711-11.9-.6S1359.177,236.407,1360.533,236.407Z" fill="#ffdb66"/>
        <path id="Caminho_61742" data-name="Caminho 61742" d="M1358.252,232.644c1.356,0,6.717-.475,9.578-2.131a8.963,8.963,0,0,1,10.092,1.053,7.026,7.026,0,0,0,9.038,0c1.959-1.809,7.231-2.862,10.694,0s7.23.3,10.694-1.053,7.08-1.206,9.941,1.053,6.026,1.507,9.941,0,5.876-.452,6.328,2.41-2.259,6.929-6.328,5.423-10.21-4.372-13.223-4.372-5.734,3.318-9.5,3.468-5.562-2.263-10.08-3.468-7.413,3.016-12.083,3.468-4.519-1.808-8.887-2.861-4.217-.3-9.186,1.205-10.847,2.711-11.9-.6S1356.9,232.644,1358.252,232.644Z" fill="#e6975c"/>
        <path id="Caminho_25639" data-name="Caminho 25639" d="M1357.756,231.617c1.355,0,6.717-.475,9.578-2.132a8.96,8.96,0,0,1,10.091,1.054,7.027,7.027,0,0,0,9.039,0c1.959-1.809,7.231-2.862,10.694,0s7.23.3,10.694-1.054,7.079-1.206,9.941,1.054,6.026,1.507,9.941,0,5.875-.452,6.328,2.41-2.259,6.929-6.328,5.423S1417.524,234,1414.511,234s-5.734,3.318-9.5,3.468-5.561-2.263-10.08-3.468-7.412,3.015-12.082,3.468-4.519-1.808-8.887-2.862-4.217-.3-9.187,1.205-10.846,2.712-11.9-.6S1356.4,231.617,1357.756,231.617Z" fill="#ffc599"/>
        <path id="Caminho_25638" data-name="Caminho 25638" d="M1357.074,227.853c1.356,0,6.717-.475,9.578-2.131a8.963,8.963,0,0,1,10.092,1.053,7.024,7.024,0,0,0,9.038,0c1.959-1.808,7.231-2.862,10.694,0s7.23.3,10.694-1.053,7.08-1.206,9.941,1.053,6.026,1.507,9.941,0,5.876-.452,6.328,2.41-2.259,6.929-6.328,5.423-10.21-4.372-13.222-4.372-5.735,3.318-9.5,3.469-5.562-2.264-10.08-3.469-7.413,3.016-12.083,3.469-4.518-1.809-8.886-2.862-4.218-.3-9.187,1.205-10.847,2.711-11.9-.6S1355.719,227.853,1357.074,227.853Z" fill="#e66767"/>
        <path id="Caminho_61741" data-name="Caminho 61741" d="M1357.794,226.827c1.356,0,6.718-.475,9.578-2.132a8.963,8.963,0,0,1,10.092,1.054,7.026,7.026,0,0,0,9.038,0c1.959-1.809,7.231-2.862,10.694,0s7.23.3,10.695-1.054,7.079-1.206,9.941,1.054,6.025,1.507,9.941,0,5.875-.452,6.328,2.41-2.26,6.929-6.328,5.423-10.211-4.372-13.223-4.372-5.734,3.318-9.5,3.468-5.561-2.263-10.08-3.468-7.412,3.015-12.083,3.468-4.518-1.808-8.886-2.862-4.218-.3-9.187,1.205-10.847,2.712-11.9-.6S1356.439,226.827,1357.794,226.827Z" fill="#f99"/>
      </g>
    </g>
  </g>
</svg>
