<svg xmlns="http://www.w3.org/2000/svg" width="40.994" height="40.398" viewBox="0 0 40.994 40.398">
  <g id="Home_-_Icon" data-name="Home - Icon" transform="translate(-1370.063 -779.802)">
    <path id="Caminho_61758" data-name="Caminho 61758" d="M1403.207,820.2h-7.336a1.2,1.2,0,0,1-1.2-1.2v-9.353a2.2,2.2,0,0,0-2.2-2.2h-3.826a2.2,2.2,0,0,0-2.2,2.2V819a1.2,1.2,0,0,1-1.2,1.2h-7.331a2.9,2.9,0,0,1-2.9-2.9V803.7a.5.5,0,0,0-.5-.5h-1.548a2.9,2.9,0,0,1-2.051-4.952l17.6-17.6a2.906,2.906,0,0,1,4.1,0l17.6,17.6a2.9,2.9,0,0,1-2.051,4.952h-1.548a.5.5,0,0,0-.5.5v13.6A2.9,2.9,0,0,1,1403.207,820.2Zm-6.136-2.4h6.136a.5.5,0,0,0,.5-.5V803.7a2.9,2.9,0,0,1,2.9-2.9h1.548a.5.5,0,0,0,.354-.855l-17.6-17.594a.5.5,0,0,0-.708,0l-17.6,17.594a.5.5,0,0,0,.354.855h1.548a2.9,2.9,0,0,1,2.9,2.9v13.6a.5.5,0,0,0,.5.5h6.131v-8.153a4.6,4.6,0,0,1,4.6-4.6h3.826a4.6,4.6,0,0,1,4.6,4.6Z" fill="#edf2fa"/>
  </g>
</svg>
