<svg xmlns="http://www.w3.org/2000/svg" xmlns:xlink="http://www.w3.org/1999/xlink" width="24" height="37.52" viewBox="0 0 24 37.52">
  <defs>
    <clipPath id="clip-path">
      <path id="Profile_-_Shadow" data-name="Profile - Shadow" d="M1702.56,792.22v1.47a1.94,1.94,0,0,1-.02.24,1.451,1.451,0,0,1-.72,1c-.07.03-.14.07-.2.1-.25.13-.5.26-.75.38-.34.16-.68.32-1.02.46a23.5,23.5,0,0,1-4.64,1.43,24.2,24.2,0,0,1-4.65.46,21.679,21.679,0,0,1-2.42-.13,23.481,23.481,0,0,1-4.7-.96c-.69-.22-1.37-.47-2.05-.75-.51-.21-1.01-.44-1.51-.69-.19-.1-.39-.2-.58-.3a1.428,1.428,0,0,1-.71-.95,1.356,1.356,0,0,1-.03-.29v-.08c0-.55,0-1.13.01-1.73,0-.38.01-.78.03-1.18.01-.57.04-1.16.09-1.75l.03-.39c.06-.59.13-1.18.22-1.78.07-.43.15-.85.25-1.28a16.628,16.628,0,0,1,.55-1.95c.04-.11.08-.21.13-.32a10.769,10.769,0,0,1,1.06-2.12,9.362,9.362,0,0,1,2.46-2.61,4.931,4.931,0,0,1,3.85-.5c.23.04.46.08.68.12a14.563,14.563,0,0,0,2.7.32,14.749,14.749,0,0,0,2.49-.26c1.55-.26,3.15-.52,4.63.55.01.01.02.01.02.02s.01,0,.02.01c.15.12.3.24.45.35a9.48,9.48,0,0,1,1.65,1.77,11.5,11.5,0,0,1,1.51,2.91c.16.44.29.88.41,1.33l.12.48c.11.48.2.96.28,1.44.1.63.17,1.26.22,1.88.04.53.07,1.05.1,1.56v.18C1702.54,791.19,1702.55,791.72,1702.56,792.22Zm-4.26-24.79a7.762,7.762,0,0,0-15.33-1.05,7.881,7.881,0,0,0-.17,1.62v.22a7.924,7.924,0,0,0,.29,1.89,7.19,7.19,0,0,0,.35.98c.06.15.14.3.21.45a9.93,9.93,0,0,0,.53.89,7.986,7.986,0,0,0,1.29,1.43,8.425,8.425,0,0,0,1.35.95.536.536,0,0,0,.11.05,7.752,7.752,0,0,0,9.65-1.96,1.137,1.137,0,0,0,.1-.13,7.378,7.378,0,0,0,.7-1.05,7.732,7.732,0,0,0,.67-1.69,5.568,5.568,0,0,0,.19-.92,5.371,5.371,0,0,0,.07-.69c.01-.14.01-.28.01-.42A5.457,5.457,0,0,0,1698.3,767.43Z" fill="none"/>
    </clipPath>
  </defs>
  <g id="Grupo_13728" data-name="Grupo 13728" transform="translate(-1678.56 -760.24)">
    <g id="Grupo_13727" data-name="Grupo 13727" clip-path="url(#clip-path)">
      <g id="Grupo_13750" data-name="Grupo 13750">
        <path id="Caminho_61752" data-name="Caminho 61752" d="M1644.11,793.55c1.356,0,6.717-.475,9.578-2.132a8.963,8.963,0,0,1,10.092,1.053,7.023,7.023,0,0,0,9.038,0c1.959-1.808,7.231-2.862,10.694,0s7.23.3,10.694-1.053,7.079-1.206,9.941,1.053,6.026,1.507,9.941,0,5.875-.452,6.328,2.41-2.259,6.93-6.328,5.423-10.21-4.371-13.223-4.371-5.734,3.317-9.5,3.468-5.562-2.263-10.08-3.468-7.413,3.015-12.083,3.468-4.519-1.809-8.887-2.862-4.217-.3-9.187,1.205-10.846,2.711-11.9-.6S1642.755,793.55,1644.11,793.55Z" fill="#af74e2"/>
        <path id="Caminho_61751" data-name="Caminho 61751" d="M1643.616,791.84c1.355,0,6.717-.475,9.578-2.132a8.961,8.961,0,0,1,10.091,1.053,7.025,7.025,0,0,0,9.039,0c1.959-1.808,7.23-2.862,10.694,0s7.23.3,10.694-1.053,7.079-1.206,9.941,1.053,6.026,1.507,9.941,0,5.875-.452,6.328,2.41-2.259,6.93-6.328,5.424-10.21-4.372-13.223-4.372-5.734,3.317-9.5,3.468-5.561-2.263-10.08-3.468-7.412,3.015-12.082,3.468-4.519-1.809-8.887-2.862-4.217-.3-9.187,1.205-10.847,2.711-11.9-.6S1642.26,791.84,1643.616,791.84Z" fill="#cf99ff"/>
        <path id="Caminho_61750" data-name="Caminho 61750" d="M1641.258,787.392c1.356,0,6.717-.475,9.578-2.132a8.963,8.963,0,0,1,10.092,1.053,7.023,7.023,0,0,0,9.038,0c1.959-1.808,7.231-2.862,10.694,0s7.23.3,10.694-1.053,7.079-1.206,9.941,1.053,6.026,1.507,9.941,0,5.875-.452,6.328,2.41-2.259,6.93-6.328,5.423-10.21-4.372-13.223-4.372-5.734,3.318-9.5,3.469-5.562-2.264-10.081-3.469-7.412,3.016-12.082,3.469-4.519-1.809-8.887-2.862-4.217-.3-9.187,1.205-10.846,2.711-11.9-.6S1639.9,787.392,1641.258,787.392Z" fill="#80b4fb"/>
        <path id="Caminho_61748" data-name="Caminho 61748" d="M1639.7,785.909c1.355,0,6.717-.475,9.578-2.132a8.961,8.961,0,0,1,10.091,1.053,7.024,7.024,0,0,0,9.038,0c1.96-1.808,7.231-2.862,10.7,0s7.229.3,10.694-1.053,7.079-1.206,9.941,1.053,6.026,1.507,9.941,0,5.875-.452,6.328,2.41-2.26,6.93-6.328,5.423-10.211-4.372-13.223-4.372-5.734,3.318-9.5,3.469-5.561-2.264-10.08-3.469-7.412,3.016-12.082,3.469-4.519-1.809-8.887-2.862-4.217-.3-9.187,1.205-10.847,2.711-11.9-.6S1638.344,785.909,1639.7,785.909Z" fill="#a6cbff"/>
        <path id="Caminho_61749" data-name="Caminho 61749" d="M1640.764,782.829c1.355,0,6.717-.476,9.578-2.132a8.961,8.961,0,0,1,10.091,1.053,7.024,7.024,0,0,0,9.038,0c1.96-1.808,7.231-2.862,10.7,0s7.229.3,10.694-1.053,7.079-1.206,9.941,1.053,6.026,1.507,9.941,0,5.875-.452,6.328,2.41-2.26,6.93-6.328,5.423-10.211-4.372-13.223-4.372-5.734,3.318-9.5,3.469-5.561-2.264-10.08-3.469-7.412,3.016-12.082,3.469-4.519-1.809-8.887-2.862-4.217-.3-9.187,1.205-10.847,2.711-11.9-.6S1639.408,782.829,1640.764,782.829Z" fill="#45e6d0"/>
        <path id="Caminho_61747" data-name="Caminho 61747" d="M1639.433,781.461c1.356,0,6.717-.475,9.578-2.132a8.965,8.965,0,0,1,10.092,1.054,7.026,7.026,0,0,0,9.038,0c1.959-1.809,7.231-2.862,10.694,0s7.23.3,10.694-1.054,7.079-1.2,9.941,1.054,6.026,1.507,9.941,0,5.876-.452,6.328,2.41-2.259,6.929-6.328,5.423-10.21-4.372-13.223-4.372-5.734,3.318-9.5,3.468-5.562-2.263-10.08-3.468-7.413,3.016-12.083,3.468-4.519-1.808-8.887-2.861-4.217-.3-9.187,1.205-10.846,2.711-11.9-.6S1638.078,781.461,1639.433,781.461Z" fill="#8df2e5"/>
        <path id="Caminho_61746" data-name="Caminho 61746" d="M1637.838,777.469c1.356,0,6.717-.475,9.578-2.132a8.963,8.963,0,0,1,10.092,1.053,7.023,7.023,0,0,0,9.038,0c1.959-1.808,7.231-2.861,10.694,0s7.23.3,10.694-1.053,7.079-1.206,9.941,1.053,6.026,1.508,9.941,0,5.875-.451,6.328,2.41-2.259,6.93-6.328,5.424-10.21-4.372-13.223-4.372-5.734,3.317-9.5,3.468-5.562-2.263-10.08-3.468-7.413,3.015-12.083,3.468-4.519-1.808-8.887-2.862-4.217-.3-9.187,1.205-10.846,2.711-11.9-.6S1636.482,777.469,1637.838,777.469Z" fill="#64d97c"/>
        <path id="Caminho_61745" data-name="Caminho 61745" d="M1638.825,776.215c1.355,0,6.717-.475,9.578-2.132a8.961,8.961,0,0,1,10.091,1.053,7.024,7.024,0,0,0,9.039,0c1.959-1.808,7.231-2.862,10.694,0s7.23.3,10.694-1.053,7.079-1.206,9.941,1.053,6.026,1.507,9.941,0,5.875-.452,6.328,2.41-2.259,6.93-6.328,5.423-10.21-4.371-13.223-4.371-5.734,3.317-9.5,3.468-5.561-2.263-10.08-3.468-7.412,3.015-12.082,3.468-4.519-1.809-8.887-2.862-4.217-.3-9.187,1.205-10.846,2.711-11.9-.6S1637.469,776.215,1638.825,776.215Z" fill="#85f29b"/>
        <path id="Caminho_61744" data-name="Caminho 61744" d="M1637.836,772.223c1.356,0,6.717-.475,9.578-2.132a8.965,8.965,0,0,1,10.092,1.054,7.026,7.026,0,0,0,9.038,0c1.959-1.809,7.231-2.862,10.694,0s7.23.3,10.694-1.054,7.079-1.206,9.941,1.054,6.026,1.507,9.941,0,5.876-.452,6.328,2.41-2.259,6.929-6.328,5.423-10.21-4.372-13.223-4.372-5.734,3.318-9.5,3.468-5.562-2.263-10.08-3.468-7.413,3.015-12.083,3.468-4.519-1.808-8.887-2.862-4.217-.3-9.186,1.205-10.847,2.712-11.9-.6S1636.481,772.223,1637.836,772.223Z" fill="#ffcf33"/>
        <path id="Caminho_61743" data-name="Caminho 61743" d="M1639.319,771.2c1.356,0,6.717-.475,9.578-2.132a8.963,8.963,0,0,1,10.092,1.053,7.023,7.023,0,0,0,9.038,0c1.959-1.808,7.231-2.861,10.694,0s7.23.3,10.694-1.053,7.08-1.206,9.941,1.053,6.026,1.508,9.941,0,5.876-.451,6.328,2.41-2.259,6.93-6.328,5.424-10.21-4.372-13.222-4.372-5.735,3.317-9.5,3.468-5.562-2.263-10.08-3.468-7.413,3.015-12.083,3.468-4.518-1.808-8.886-2.862-4.218-.3-9.187,1.205-10.847,2.711-11.9-.6S1637.964,771.2,1639.319,771.2Z" fill="#ffdb66"/>
        <path id="Caminho_61742" data-name="Caminho 61742" d="M1637.039,767.433c1.355,0,6.717-.475,9.578-2.132a8.963,8.963,0,0,1,10.091,1.054,7.026,7.026,0,0,0,9.038,0c1.96-1.809,7.231-2.862,10.7,0s7.229.3,10.694-1.054,7.079-1.206,9.941,1.054,6.026,1.507,9.941,0,5.875-.452,6.328,2.41-2.259,6.929-6.328,5.423-10.211-4.372-13.223-4.372-5.734,3.318-9.5,3.468-5.561-2.263-10.08-3.468-7.412,3.015-12.082,3.468-4.519-1.808-8.887-2.861-4.217-.3-9.187,1.2-10.847,2.712-11.9-.6S1635.683,767.433,1637.039,767.433Z" fill="#e6975c"/>
        <path id="Caminho_25639" data-name="Caminho 25639" d="M1636.542,766.406c1.356,0,6.717-.475,9.578-2.132a8.963,8.963,0,0,1,10.092,1.053,7.023,7.023,0,0,0,9.038,0c1.959-1.808,7.231-2.861,10.694,0s7.23.3,10.694-1.053,7.08-1.206,9.941,1.053,6.026,1.508,9.942,0,5.875-.451,6.328,2.41-2.26,6.93-6.328,5.424-10.211-4.372-13.223-4.372-5.735,3.317-9.5,3.468-5.561-2.263-10.08-3.468-7.412,3.015-12.083,3.468-4.518-1.808-8.886-2.862-4.218-.3-9.187,1.2-10.847,2.711-11.9-.6S1635.187,766.406,1636.542,766.406Z" fill="#ffc599"/>
        <path id="Caminho_25638" data-name="Caminho 25638" d="M1635.861,762.642c1.355,0,6.717-.475,9.578-2.132a8.963,8.963,0,0,1,10.091,1.054,7.027,7.027,0,0,0,9.039,0c1.959-1.809,7.23-2.862,10.694,0s7.23.3,10.694-1.054,7.079-1.205,9.941,1.054,6.026,1.507,9.941,0,5.875-.452,6.328,2.41-2.259,6.929-6.328,5.423-10.211-4.372-13.223-4.372-5.734,3.318-9.5,3.468-5.561-2.263-10.08-3.468-7.412,3.016-12.082,3.468-4.519-1.808-8.887-2.861-4.217-.3-9.187,1.2-10.847,2.711-11.9-.6S1634.505,762.642,1635.861,762.642Z" fill="#e66767"/>
        <path id="Caminho_61741" data-name="Caminho 61741" d="M1636.581,761.616c1.356,0,6.717-.475,9.578-2.132a8.963,8.963,0,0,1,10.092,1.053,7.023,7.023,0,0,0,9.038,0c1.959-1.808,7.231-2.861,10.694,0s7.23.3,10.694-1.053,7.079-1.206,9.941,1.053,6.026,1.508,9.941,0,5.875-.451,6.328,2.41-2.259,6.93-6.328,5.424S1696.349,764,1693.336,764s-5.734,3.317-9.5,3.468-5.562-2.263-10.08-3.468-7.413,3.015-12.083,3.468-4.519-1.808-8.887-2.862-4.217-.3-9.187,1.205-10.846,2.711-11.9-.6S1635.225,761.616,1636.581,761.616Z" fill="#f99"/>
      </g>
    </g>
  </g>
</svg>
