<svg xmlns="http://www.w3.org/2000/svg" width="39.401" height="39.4" viewBox="0 0 39.401 39.4">
  <g id="Profile_-_Icon" data-name="Profile - Icon" transform="translate(-1670.859 -605.8)">
    <path id="Caminho_61754" data-name="Caminho 61754" d="M1690.56,605.8a19.7,19.7,0,1,0,19.7,19.7A19.723,19.723,0,0,0,1690.56,605.8ZM1683,641.063c0-.142,0-.288,0-.433,0-.08,0-.158,0-.239s0-.152,0-.228c0-.161.005-.322.009-.485,0-.08.006-.16.008-.24.005-.16.01-.321.018-.482,0-.087.009-.174.014-.261.008-.157.017-.313.028-.47.006-.09.014-.179.021-.269.013-.154.026-.306.041-.459.01-.094.021-.188.032-.282.017-.149.035-.3.055-.444.013-.095.028-.19.043-.285.022-.144.046-.288.072-.431.018-.095.037-.191.056-.285.029-.14.06-.278.092-.415.023-.094.046-.189.071-.282.035-.135.074-.267.114-.4.028-.092.056-.184.087-.274.043-.129.09-.255.138-.381.034-.088.068-.176.1-.262.053-.124.111-.245.169-.365.039-.081.078-.163.12-.243.063-.119.133-.234.2-.348.045-.074.088-.149.136-.221.076-.115.161-.223.245-.331.049-.064.1-.131.148-.192.1-.115.2-.221.309-.328.048-.047.091-.1.141-.145a5.077,5.077,0,0,1,.513-.417c.319-.227,1.076-.087,1.953.074a14.2,14.2,0,0,0,2.661.306,14.559,14.559,0,0,0,2.449-.249c1.073-.177,1.65-.255,2.057.04a5.306,5.306,0,0,1,.514.424c.057.053.108.113.163.169.1.1.2.2.289.306.058.069.11.143.165.214.078.1.158.2.229.309.052.077.1.158.148.238.066.108.133.216.194.329.043.081.083.164.123.247.059.119.117.238.17.361.034.08.065.162.1.243q.079.2.149.4c.026.076.051.153.075.23.046.148.09.3.131.448.018.068.035.136.052.205.042.167.08.336.115.506l.033.165c.037.192.07.384.1.579.005.035.011.07.016.106.032.221.061.443.085.666l0,.031a34.5,34.5,0,0,1,.156,3.548A17.607,17.607,0,0,1,1683,641.063Zm17.506-1.4c0-.042,0-.085-.005-.128,0-.079-.005-.158-.008-.237-.007-.177-.014-.355-.024-.535,0-.085-.009-.169-.014-.254q-.016-.274-.039-.552c-.007-.08-.012-.16-.019-.24q-.033-.364-.077-.732l-.007-.057q-.05-.4-.116-.8c-.011-.066-.025-.131-.036-.2-.035-.2-.073-.393-.115-.588-.019-.089-.04-.178-.061-.266q-.062-.264-.132-.523c-.025-.091-.05-.182-.077-.273q-.08-.266-.17-.526c-.028-.081-.053-.161-.083-.241-.085-.232-.178-.46-.278-.686l-.023-.054c-.11-.242-.23-.477-.359-.709-.038-.069-.082-.136-.122-.2-.095-.161-.193-.319-.3-.474-.055-.08-.112-.158-.17-.237q-.153-.21-.321-.411c-.064-.077-.128-.153-.195-.228-.124-.138-.256-.27-.391-.4-.064-.061-.124-.124-.19-.184a7.752,7.752,0,0,0-.653-.532c-1.237-.893-2.566-.675-3.854-.463a12.43,12.43,0,0,1-2.059.216,12.138,12.138,0,0,1-2.227-.265c-1.292-.238-2.628-.483-3.772.325a7.54,7.54,0,0,0-.654.524c-.067.06-.127.123-.191.184-.136.129-.267.261-.391.4-.068.074-.132.151-.2.227-.112.135-.22.272-.322.412-.058.079-.116.158-.171.24-.1.154-.2.312-.3.472-.042.071-.086.14-.126.212-.128.233-.248.47-.357.713-.013.028-.023.056-.035.084q-.144.328-.267.668c-.031.086-.059.174-.089.262-.057.171-.113.342-.163.516-.029.1-.056.2-.083.3-.045.17-.087.34-.127.512-.022.1-.045.2-.066.294-.039.187-.074.375-.107.564-.014.08-.03.16-.043.241q-.066.4-.115.8c-.005.043-.008.087-.014.131-.026.228-.049.456-.069.682-.008.091-.015.181-.021.271-.015.183-.028.364-.038.545-.006.094-.011.186-.015.279-.01.184-.017.365-.024.546,0,.08-.006.16-.008.24,0,.045,0,.091-.005.136a17.3,17.3,0,1,1,19.888,0Z" fill="#edf2fa"/>
    <path id="Caminho_61755" data-name="Caminho 61755" d="M1690.56,614.084a6.458,6.458,0,1,0,6.458,6.458A6.465,6.465,0,0,0,1690.56,614.084Zm0,10.516a4.058,4.058,0,1,1,4.057-4.058A4.063,4.063,0,0,1,1690.56,624.6Z" fill="#edf2fa"/>
  </g>
</svg>
