<svg xmlns="http://www.w3.org/2000/svg" width="21.666" height="20" viewBox="0 0 21.666 20">
  <path id="camera_off" d="M3.231,18.088a4.916,4.916,0,0,1-.919-2.866V10.778a5.022,5.022,0,0,1,5.032-5h5.591a4.808,4.808,0,0,1,2.087.467.549.549,0,0,1,.309.407.554.554,0,0,1-.156.487L4.082,18.16a.562.562,0,0,1-.4.162l-.047,0A.562.562,0,0,1,3.231,18.088Zm19.814-9.7a1.761,1.761,0,0,0-1.8.087l-1.275.844a.42.42,0,0,0-.187.347v6.667a.416.416,0,0,0,.187.347l1.274.843a1.75,1.75,0,0,0,.973.294,1.769,1.769,0,0,0,.827-.207,1.744,1.744,0,0,0,.933-1.545V9.932A1.747,1.747,0,0,0,23.045,8.389ZM22.671,4.9a1.1,1.1,0,0,0,0-1.571,1.122,1.122,0,0,0-1.581,0L3.2,21.1a1.1,1.1,0,0,0,0,1.571,1.123,1.123,0,0,0,1.581,0l2.478-2.462c.03,0,.056.01.086.01h5.591a5.022,5.022,0,0,0,5.032-5V10.778a4.908,4.908,0,0,0-.122-1.086Z" transform="translate(-2.312 -3)" fill="#9497af"/>
</svg>
