<svg xmlns="http://www.w3.org/2000/svg" width="19.459" height="19.5" viewBox="0 0 19.459 19.5">
  <path id="headphone_on" d="M49.514,663.222a1.043,1.043,0,0,1-1.043-1.043v-5.606a7.644,7.644,0,0,0-15.289,0v5.606a1.043,1.043,0,1,1-2.085,0v-5.606a9.73,9.73,0,0,1,19.459,0v5.606A1.043,1.043,0,0,1,49.514,663.222ZM44.6,657.868a2.121,2.121,0,0,0-2.119,2.119v4.237a2.119,2.119,0,0,0,4.237,0v-4.237A2.121,2.121,0,0,0,44.6,657.868Zm-5.429,2.119v4.237a2.119,2.119,0,0,1-4.237,0v-4.237a2.119,2.119,0,0,1,4.237,0Z" transform="translate(-31.097 -646.843)" fill="#eaebf2"/>
</svg>
