<svg xmlns="http://www.w3.org/2000/svg" width="19.459" height="19.499" viewBox="0 0 19.459 19.499">
  <path id="headphone_off" d="M527.656,666.656v5.606a1.043,1.043,0,0,1-2.086,0v-5.606a7.6,7.6,0,0,0-1.536-4.59l-7.777,7.777a2.121,2.121,0,0,1,.013.227v4.237a2.119,2.119,0,1,1-4.237,0v-.241l-1.915,1.915a1.033,1.033,0,0,1-1.461,0l-.037-.037a1.033,1.033,0,0,1,0-1.461l17.112-17.112a1.033,1.033,0,0,1,1.462,0l.037.036a1.034,1.034,0,0,1,0,1.462l-1.712,1.712A9.681,9.681,0,0,1,527.656,666.656ZM509.93,670.5l.055-.055a1.015,1.015,0,0,0,.3-.718v-2.991a7.7,7.7,0,0,1,7.8-7.725,7.608,7.608,0,0,1,2.18.364,1.022,1.022,0,0,0,1.039-.245l.044-.044a1.015,1.015,0,0,0-.4-1.683,9.676,9.676,0,0,0-2.791-.476,9.788,9.788,0,0,0-9.956,9.818v3.038A1.015,1.015,0,0,0,509.93,670.5Zm11.771-2.551a2.121,2.121,0,0,0-2.119,2.119v4.237a2.119,2.119,0,1,0,4.237,0V670.07A2.121,2.121,0,0,0,521.7,667.951Z" transform="translate(-508.197 -656.926)" fill="#9497af"/>
</svg>
