<svg xmlns="http://www.w3.org/2000/svg" width="15.658" height="20" viewBox="0 0 15.658 20">
  <path id="microphone_off" d="M550.689,37.237V32.465a4.442,4.442,0,0,1,4.724-4.452,4.391,4.391,0,0,1,2.762,1.25.966.966,0,0,1,.006,1.372L551.318,37.5A.368.368,0,0,1,550.689,37.237Zm-1.533,2.422h0a.975.975,0,0,0,.255-.936,5.86,5.86,0,0,1-.19-1.486.979.979,0,0,0-1.957,0,7.8,7.8,0,0,0,.255,1.986A.978.978,0,0,0,549.156,39.658Zm13.765-2.422a.979.979,0,1,0-1.957,0,5.868,5.868,0,0,1-9.459,4.645l1.049-1.049a4.4,4.4,0,0,0,6.942-3.6V33.891l3.13-3.131a.979.979,0,0,0,0-1.384h0a.979.979,0,0,0-1.384,0L547.566,43.053a.979.979,0,0,0,1.384,1.384l1.167-1.167a7.808,7.808,0,0,0,4,1.728v1.046h-2.936a.979.979,0,1,0,0,1.957h7.829a.979.979,0,1,0,0-1.957h-2.936V45A7.836,7.836,0,0,0,562.922,37.237Z" transform="translate(-547.264 -28.001)" fill="#9497af"/>
</svg>
