<svg xmlns="http://www.w3.org/2000/svg" width="14.999" height="19.001" viewBox="0 0 14.999 19.001">
  <path id="profile_on" d="M7.5,7.5a5,5,0,1,1,5,5,5.006,5.006,0,0,1-5-5Zm9.117,6.071a2.3,2.3,0,0,0-1.67.218,5.046,5.046,0,0,1-4.894,0,2.315,2.315,0,0,0-1.67-.218A4.509,4.509,0,0,0,5,17.967v1.011a3.536,3.536,0,0,0,.493,1.806,1.5,1.5,0,0,0,1.285.717H18.222a1.493,1.493,0,0,0,1.285-.718A3.53,3.53,0,0,0,20,18.978V17.967A4.507,4.507,0,0,0,16.618,13.571Z" transform="translate(-5 -2.5)" fill="#eaebf2"/>
</svg>
