<svg xmlns="http://www.w3.org/2000/svg" xmlns:xlink="http://www.w3.org/1999/xlink" width="144.97" height="159.998" viewBox="0 0 144.97 159.998">
  <defs>
    <linearGradient id="linear-gradient" x1="1" x2="0" y2="1" gradientUnits="objectBoundingBox">
      <stop offset="0" stop-color="#a44cee"/>
      <stop offset="1" stop-color="#4d72de"/>
    </linearGradient>
  </defs>
  <path id="Border" d="M51.956,4a19.914,19.914,0,0,0-17.245,9.957L6.668,62.529a19.914,19.914,0,0,0,0,19.914l28.043,48.57a19.914,19.914,0,0,0,17.245,9.957h56.085a19.914,19.914,0,0,0,17.245-9.957l28.043-48.57a19.915,19.915,0,0,0,0-19.914L125.287,13.957A19.914,19.914,0,0,0,108.042,4H51.956m0-4h56.085a23.914,23.914,0,0,1,20.709,11.957l28.043,48.572a23.916,23.916,0,0,1,0,23.914l-28.043,48.57a23.914,23.914,0,0,1-20.709,11.957H51.956a23.914,23.914,0,0,1-20.709-11.957L3.2,84.442a23.915,23.915,0,0,1,0-23.914L31.247,11.957A23.914,23.914,0,0,1,51.956,0Z" transform="translate(144.97 0) rotate(90)" fill="url(#linear-gradient)"/>
</svg>
