<svg xmlns="http://www.w3.org/2000/svg" xmlns:xlink="http://www.w3.org/1999/xlink" width="43.491" height="48" viewBox="0 0 43.491 48">
  <defs>
    <linearGradient id="linear-gradient" x1="1" x2="0" y2="1" gradientUnits="objectBoundingBox">
      <stop offset="0" stop-color="#a44cee"/>
      <stop offset="1" stop-color="#4d72de"/>
    </linearGradient>
    <linearGradient id="linear-gradient-2" x1="1" y1="1" x2="0" y2="0" xlink:href="#linear-gradient"/>
  </defs>
  <g id="Logo" transform="translate(-11.006 -57.37)">
    <g id="Border" transform="translate(54.497 57.37) rotate(90)" fill="#2c3047" stroke-miterlimit="10">
      <path d="M 32.41292953491211 42.99148178100586 L 15.5871000289917 42.99148178100586 C 13.21041965484619 42.99148178100586 10.99573040008545 41.71277236938477 9.807279586791992 39.65436172485352 L 1.394129991531372 25.08306312561035 C 0.2057899981737137 23.02447319030762 0.2057899981737137 20.46706199645996 1.394129991531372 18.40888214111328 L 9.807279586791992 3.837132692337036 C 10.99575042724609 1.778722763061523 13.21045017242432 0.5000028014183044 15.5871000289917 0.5000028014183044 L 32.41292953491211 0.5000028014183044 C 34.78961944580078 0.5000028014183044 37.00432968139648 1.778712749481201 38.19277954101562 3.837132692337036 L 46.60593032836914 18.40887260437012 C 47.79421997070312 20.4670524597168 47.79420852661133 23.02447319030762 46.60589981079102 25.0831127166748 L 38.19277954101562 39.65435409545898 C 37.00436019897461 41.71277236938477 34.78964996337891 42.99148178100586 32.41292953491211 42.99148178100586 Z" stroke="none"/>
      <path d="M 15.58710098266602 1.000003814697266 C 13.38851165771484 1.000003814697266 11.33972930908203 2.18292236328125 10.24029159545898 4.087131500244141 L 1.827140808105469 18.65889358520508 C 0.7278213500976562 20.5628719329834 0.7278404235839844 22.92870330810547 1.827129364013672 24.83305358886719 L 10.24029159545898 39.40435409545898 C 11.33969879150391 41.30856323242188 13.38848114013672 42.49148178100586 15.58710098266602 42.49148178100586 L 32.41292953491211 42.49148178100586 C 34.61159133911133 42.49148178100586 36.66038131713867 41.30856323242188 37.75978088378906 39.40433120727539 L 46.17287063598633 24.83315277099609 C 47.27217102050781 22.92871284484863 47.27217864990234 20.56286239624023 46.17292022705078 18.65888214111328 L 37.75976943969727 4.087131500244141 C 36.66035079956055 2.18292236328125 34.6115608215332 1.000003814697266 32.41292953491211 1.000003814697266 L 15.58710098266602 1.000003814697266 M 15.58710098266602 3.814697265625e-06 L 32.41292953491211 3.814697265625e-06 C 34.97592163085938 3.814697265625e-06 37.34432983398438 1.367610931396484 38.62578964233398 3.587123870849609 L 47.0389404296875 18.15887260437012 C 48.32036972045898 20.37838363647461 48.32036972045898 23.11310195922852 47.0389404296875 25.33307266235352 L 38.62578964233398 39.90435409545898 C 37.34432983398438 42.12393188476562 34.97592163085938 43.49148178100586 32.41292953491211 43.49148178100586 L 15.58710098266602 43.49148178100586 C 13.024169921875 43.49148178100586 10.65576171875 42.12393188476562 9.374271392822266 39.90435409545898 L 0.96112060546875 25.33307266235352 C -0.3203697204589844 23.11310195922852 -0.3203697204589844 20.37838363647461 0.96112060546875 18.15887260437012 L 9.374271392822266 3.587123870849609 C 10.65576171875 1.367610931396484 13.024169921875 3.814697265625e-06 15.58710098266602 3.814697265625e-06 Z" stroke="none" fill="#4a4d64"/>
    </g>
    <path id="Border-2" data-name="Border" d="M13.639,1a5.292,5.292,0,0,0-4.57,2.639L1.707,16.389a5.292,5.292,0,0,0,0,5.277l7.361,12.75a5.292,5.292,0,0,0,4.57,2.639H28.361a5.292,5.292,0,0,0,4.57-2.639l7.361-12.75a5.293,5.293,0,0,0,0-5.277L32.931,3.639A5.292,5.292,0,0,0,28.361,1H13.639m0-1H28.361A6.278,6.278,0,0,1,33.8,3.139l7.361,12.75a6.278,6.278,0,0,1,0,6.277L33.8,34.916a6.277,6.277,0,0,1-5.436,3.139H13.639A6.277,6.277,0,0,1,8.2,34.916L.841,22.166a6.278,6.278,0,0,1,0-6.277L8.2,3.139A6.278,6.278,0,0,1,13.639,0Z" transform="translate(51.779 60.37) rotate(90)" fill="url(#linear-gradient)"/>
    <path id="Caminho_398" data-name="Caminho 398" d="M6.384,16.67c-2.863-.7-3.625-2.549-2.873-4.215S6.323,10.986,7,11.32a3.459,3.459,0,0,0,1.494.329,3.516,3.516,0,1,0,0-7.032c-1.389,0-2.626,1.485-3.219,2.077A3.207,3.207,0,0,1,2.2,7.446C.915,7.072,0,6.145,0,4.039s0-3.013,0-4A2.725,2.725,0,0,1,2.836-2.411,2.466,2.466,0,0,1,5.277.034h0A9.257,9.257,0,0,1,6.4-.407a8.884,8.884,0,0,1,2.1-.25,8.822,8.822,0,0,1,8.123,5.369,8.8,8.8,0,0,1-4.691,11.521,8.783,8.783,0,0,1-3.431.691A8.885,8.885,0,0,1,6.384,16.67Z" transform="translate(24.096 74.114)" fill="url(#linear-gradient-2)"/>
  </g>
</svg>
